<?xml version="1.0" encoding="UTF-8"?><svg id="Calque_2" xmlns="http://www.w3.org/2000/svg" viewBox="0 0 246.97 93.65"><defs><style>.cls-1{fill:#4c0634;}</style></defs><g id="Maquette"><path class="cls-1" d="m30.7,27.95c0,2.68-.46,4.99-1.39,6.93-.93,1.94-2.2,3.54-3.81,4.8s-3.5,2.19-5.65,2.78c-2.16.6-4.48.89-6.96.89-.96,0-2.01-.13-3.15-.38s-2.3-.57-3.47-.95-2.3-.79-3.38-1.23-2.05-.85-2.89-1.25l1.29-11.48c1.66,1,3.5,1.75,5.52,2.27,2.02.52,4.01.78,5.96.78.37,0,.82-.01,1.35-.04s1.03-.12,1.51-.26c.48-.15.88-.37,1.22-.66.33-.29.5-.71.5-1.26,0-.37-.12-.69-.35-.95s-.54-.48-.91-.64c-.37-.17-.79-.29-1.26-.38s-.93-.15-1.38-.19c-.45-.04-.87-.06-1.26-.06h-.94c-1.68,0-3.21-.26-4.58-.79s-2.56-1.27-3.54-2.24c-.99-.97-1.75-2.14-2.3-3.52-.55-1.38-.82-2.9-.82-4.58,0-2.3.46-4.37,1.39-6.2.93-1.83,2.17-3.38,3.72-4.66,1.55-1.28,3.33-2.26,5.35-2.94,2.01-.68,4.09-1.03,6.24-1.03.96,0,1.94.03,2.96.1,1.02.07,2.03.19,3.03.37,1.01.18,1.99.4,2.94.67.96.27,1.86.62,2.72,1.03l-1.11,11.89c-1.33-.45-2.72-.82-4.17-1.13-1.46-.3-2.88-.45-4.26-.45-.25,0-.58,0-.98.01-.4.01-.82.04-1.26.09-.44.05-.88.12-1.33.22-.45.1-.85.23-1.2.4-.35.17-.63.39-.85.66-.22.27-.31.6-.29.97.02.43.18.76.48,1,.3.23.69.41,1.17.51.48.11,1.01.16,1.58.16s1.15-.01,1.71-.04c.57-.03,1.09-.06,1.58-.09.49-.03.89-.03,1.2-.01,1.56.1,2.97.43,4.22,1,1.25.57,2.31,1.32,3.18,2.26.87.94,1.53,2.06,1.99,3.35.46,1.3.69,2.73.69,4.29Z"/><path class="cls-1" d="m62.9,1.64l-.29,12.42-8.73.35-1.05,27.19-12.36.64-1.11-27.19-8.73.47.35-13.83,31.93-.06Z"/><path class="cls-1" d="m98.91,14.71c0,1.52-.13,2.91-.4,4.15-.26,1.24-.68,2.38-1.25,3.41-.57,1.04-1.3,1.99-2.2,2.87-.9.88-1.98,1.72-3.25,2.52l6.97,12.42-13.18,2.58-4.51-12.48-3.63.12-.53,12.19h-12.6c.1-4.45.19-8.89.28-13.3.09-4.41.19-8.85.31-13.3.04-2.25.08-4.47.12-6.68.04-2.21.12-4.43.23-6.68,1.37-.51,2.71-.93,4.04-1.26,1.33-.33,2.66-.59,4-.78,1.34-.19,2.7-.31,4.07-.38,1.38-.07,2.79-.1,4.23-.1,2.23,0,4.38.31,6.46.92s3.92,1.54,5.52,2.77c1.6,1.23,2.89,2.76,3.85,4.6.97,1.84,1.45,3.97,1.45,6.42Zm-13.12.94c0-.82-.11-1.57-.34-2.26-.22-.68-.56-1.27-1-1.77s-.99-.89-1.64-1.17c-.65-.28-1.42-.42-2.3-.42-.39,0-.77.02-1.14.07-.37.05-.73.12-1.08.22l-.47,10.9h.7c.84,0,1.69-.11,2.56-.32.87-.21,1.65-.55,2.34-1,.69-.45,1.26-1.03,1.7-1.73s.66-1.54.66-2.52Z"/><path class="cls-1" d="m133.33,19.28c0,1.7-.12,3.4-.35,5.1-3.34.22-6.66.56-9.96,1.04-3.3.48-6.6.95-9.9,1.42.51,1.41,1.3,2.53,2.39,3.37,1.08.84,2.38,1.26,3.88,1.26.78,0,1.64-.15,2.56-.44.93-.29,1.85-.66,2.77-1.1.92-.44,1.8-.91,2.64-1.42.84-.51,1.56-.97,2.17-1.38l-1.41,13.3c-.76.59-1.59,1.08-2.48,1.49-.89.41-1.81.74-2.77,1-.96.25-1.92.44-2.9.56-.98.12-1.93.18-2.87.18-1.93,0-3.7-.26-5.3-.79-1.6-.53-3.05-1.26-4.35-2.21-1.3-.95-2.44-2.07-3.41-3.35-.98-1.29-1.79-2.7-2.43-4.22s-1.13-3.13-1.46-4.83c-.33-1.7-.5-3.42-.5-5.16s.17-3.63.5-5.45c.33-1.82.83-3.56,1.51-5.24.67-1.68,1.52-3.24,2.55-4.67s2.22-2.69,3.59-3.76c1.37-1.07,2.92-1.91,4.64-2.52,1.73-.6,3.64-.91,5.73-.91,1.74,0,3.33.24,4.76.72,1.44.48,2.71,1.14,3.84,1.99,1.12.85,2.1,1.86,2.93,3.03.83,1.17,1.51,2.46,2.05,3.85.54,1.4.94,2.87,1.2,4.42s.4,3.13.4,4.73Zm-11.72-1.52c0-.55-.06-1.11-.18-1.68-.12-.58-.31-1.1-.57-1.57s-.61-.85-1.04-1.16c-.43-.3-.97-.45-1.61-.45-.78,0-1.47.21-2.07.63-.6.42-1.11.95-1.54,1.58-.43.63-.78,1.32-1.05,2.07-.27.74-.48,1.43-.62,2.05l8.67-.82v-.64Z"/><path class="cls-1" d="m167.93,19.28c0,1.7-.12,3.4-.35,5.1-3.34.22-6.66.56-9.96,1.04-3.3.48-6.6.95-9.9,1.42.51,1.41,1.3,2.53,2.39,3.37,1.08.84,2.38,1.26,3.88,1.26.78,0,1.64-.15,2.56-.44.93-.29,1.85-.66,2.77-1.1.92-.44,1.8-.91,2.64-1.42.84-.51,1.56-.97,2.17-1.38l-1.41,13.3c-.76.59-1.59,1.08-2.48,1.49-.89.41-1.81.74-2.77,1-.96.25-1.92.44-2.9.56-.98.12-1.93.18-2.87.18-1.93,0-3.7-.26-5.3-.79-1.6-.53-3.05-1.26-4.35-2.21-1.3-.95-2.44-2.07-3.41-3.35-.98-1.29-1.79-2.7-2.43-4.22s-1.13-3.13-1.46-4.83c-.33-1.7-.5-3.42-.5-5.16s.17-3.63.5-5.45c.33-1.82.83-3.56,1.51-5.24.67-1.68,1.52-3.24,2.55-4.67s2.22-2.69,3.59-3.76c1.37-1.07,2.92-1.91,4.64-2.52,1.73-.6,3.64-.91,5.73-.91,1.74,0,3.33.24,4.76.72,1.44.48,2.71,1.14,3.84,1.99,1.12.85,2.1,1.86,2.93,3.03.83,1.17,1.51,2.46,2.05,3.85.54,1.4.94,2.87,1.2,4.42s.4,3.13.4,4.73Zm-11.72-1.52c0-.55-.06-1.11-.18-1.68-.12-.58-.31-1.1-.57-1.57s-.61-.85-1.04-1.16c-.43-.3-.97-.45-1.61-.45-.78,0-1.47.21-2.07.63-.6.42-1.11.95-1.54,1.58-.43.63-.78,1.32-1.05,2.07-.27.74-.48,1.43-.62,2.05l8.67-.82v-.64Z"/><path class="cls-1" d="m200.86,1.64l-.29,12.42-8.73.35-1.05,27.19-12.36.64-1.11-27.19-8.73.47.35-13.83,31.93-.06Z"/><path class="cls-1" d="m28.39,51.29c-.12,1.84-.22,3.65-.32,5.45-.1,1.8-.22,3.61-.38,5.45l-12.42.64v3.69h10.78l-.59,9.08-10.25.29.06,16.17-14.82.29.94-41.07h27.01Z"/><path class="cls-1" d="m62.08,69.28c0,1.7-.12,3.4-.35,5.1-3.34.22-6.66.56-9.96,1.04-3.3.48-6.6.95-9.9,1.42.51,1.41,1.3,2.53,2.39,3.37,1.08.84,2.38,1.26,3.88,1.26.78,0,1.64-.15,2.56-.44.93-.29,1.85-.66,2.77-1.1.92-.44,1.8-.91,2.64-1.42.84-.51,1.56-.97,2.17-1.38l-1.41,13.3c-.76.59-1.59,1.08-2.48,1.49-.89.41-1.81.74-2.77,1-.96.25-1.92.44-2.9.56-.98.12-1.93.18-2.87.18-1.93,0-3.7-.26-5.3-.79-1.6-.53-3.05-1.26-4.35-2.21-1.3-.95-2.44-2.07-3.41-3.35-.98-1.29-1.79-2.7-2.43-4.22s-1.13-3.13-1.46-4.83c-.33-1.7-.5-3.42-.5-5.16s.17-3.63.5-5.45c.33-1.82.83-3.56,1.51-5.24.67-1.68,1.52-3.24,2.55-4.67s2.22-2.69,3.59-3.76c1.37-1.07,2.92-1.91,4.64-2.52,1.73-.6,3.64-.91,5.73-.91,1.74,0,3.33.24,4.76.72,1.44.48,2.71,1.14,3.84,1.99,1.12.85,2.1,1.86,2.93,3.03.83,1.17,1.51,2.46,2.05,3.85.54,1.4.94,2.87,1.2,4.42s.4,3.13.4,4.73Zm-11.72-1.52c0-.55-.06-1.11-.18-1.68-.12-.58-.31-1.1-.57-1.57s-.61-.85-1.04-1.16c-.43-.3-.97-.45-1.61-.45-.78,0-1.47.21-2.07.63-.6.42-1.11.95-1.54,1.58-.43.63-.78,1.32-1.05,2.07-.27.74-.48,1.43-.62,2.05l8.67-.82v-.64Z"/><path class="cls-1" d="m94.01,77.95c0,2.68-.46,4.99-1.39,6.93-.93,1.94-2.2,3.54-3.81,4.8s-3.5,2.19-5.65,2.78c-2.16.6-4.48.89-6.96.89-.96,0-2.01-.13-3.15-.38s-2.3-.57-3.47-.95-2.3-.79-3.38-1.23-2.05-.85-2.89-1.25l1.29-11.48c1.66,1,3.5,1.75,5.52,2.27,2.02.52,4.01.78,5.96.78.37,0,.82-.01,1.35-.04s1.03-.12,1.51-.26c.48-.15.88-.37,1.22-.66.33-.29.5-.71.5-1.26,0-.37-.12-.69-.35-.95s-.54-.48-.91-.64c-.37-.17-.79-.29-1.26-.38s-.93-.15-1.38-.19c-.45-.04-.87-.06-1.26-.06h-.94c-1.68,0-3.21-.26-4.58-.79s-2.56-1.27-3.54-2.24c-.99-.97-1.75-2.14-2.3-3.52-.55-1.38-.82-2.9-.82-4.58,0-2.3.46-4.37,1.39-6.2.93-1.83,2.17-3.38,3.72-4.66,1.55-1.28,3.33-2.26,5.35-2.94,2.01-.68,4.09-1.03,6.24-1.03.96,0,1.94.03,2.96.1,1.02.07,2.03.19,3.03.37,1.01.18,1.99.4,2.94.67.96.27,1.86.62,2.72,1.03l-1.11,11.89c-1.33-.45-2.72-.82-4.17-1.13-1.46-.3-2.88-.45-4.26-.45-.25,0-.58,0-.98.01-.4.01-.82.04-1.26.09-.44.05-.88.12-1.33.22-.45.1-.85.23-1.2.4-.35.17-.63.39-.85.66-.22.27-.31.6-.29.97.02.43.18.76.48,1,.3.23.69.41,1.17.51.48.11,1.01.16,1.58.16s1.15-.01,1.71-.04c.57-.03,1.09-.06,1.58-.09.49-.03.89-.03,1.2-.01,1.56.1,2.97.43,4.22,1,1.25.57,2.31,1.32,3.18,2.26.87.94,1.53,2.06,1.99,3.35.46,1.3.69,2.73.69,4.29Z"/><path class="cls-1" d="m126.21,51.64l-.29,12.42-8.73.35-1.05,27.19-12.36.64-1.11-27.19-8.73.47.35-13.83,31.93-.06Z"/><path class="cls-1" d="m143.17,51.7l-2.05,39.9-12.36.64-1.17-39.73,15.59-.82Z"/><path class="cls-1" d="m181.49,51.88l-10.72,39.61-14.53.82-13.18-38.26,13.89-1.29,5.62,22.27,5.45-24.02,13.48.88Z"/><path class="cls-1" d="m216.12,90.43l-14.53,1.88-1.76-6.62h-6.68l-1.46,6.62-14.94-1.46,11.66-39.02,16.29-.82,11.43,39.43Zm-17.34-13.71l-2.23-10.2-2.17,10.2h4.39Z"/><path class="cls-1" d="m242.43,77.42l-1.23,13.01-24.67,1.93.94-41.84h15.23l-2.17,26.89h11.89Z"/><path class="cls-1" d="m208.81,31.8v1.45c0,.48-.02.96-.07,1.45-.09,1.03-.31,2.01-.67,2.93s-.84,1.73-1.44,2.42-1.35,1.24-2.21,1.65c-.87.4-1.86.61-2.99.61-.44,0-.9-.04-1.37-.11-.48-.07-.95-.19-1.41-.33-.47-.15-.91-.33-1.34-.55-.43-.22-.8-.47-1.13-.76l.77-5.13c.49.47,1.03.85,1.62,1.15.59.29,1.24.44,1.95.44.46,0,.84-.07,1.15-.2.31-.13.57-.31.78-.54.21-.23.37-.5.49-.81.12-.31.21-.64.26-.99.05-.35.09-.71.1-1.08.01-.37.02-.74.02-1.1,0-1.31-.07-2.62-.2-3.92-.13-1.3-.25-2.61-.35-3.91l5.68-.37c.25,2.58.37,5.16.37,7.74Z"/><path class="cls-1" d="m225.03,40.95l-6.15.79-.74-2.8h-2.83l-.62,2.8-6.32-.62,4.93-16.52,6.89-.35,4.84,16.69Zm-7.34-5.8l-.94-4.31-.92,4.31h1.86Z"/><path class="cls-1" d="m246.97,33.61c0,1.18-.04,2.36-.11,3.53s-.16,2.35-.26,3.53l-6.37.3c.19-1.44.36-2.88.51-4.32.15-1.44.23-2.89.23-4.33,0-.09,0-.25-.01-.48,0-.23-.02-.49-.04-.77s-.05-.59-.09-.9c-.04-.31-.09-.59-.15-.86-.06-.26-.14-.47-.23-.64-.09-.17-.2-.25-.32-.25-.29,0-.52.11-.68.33-.17.22-.29.48-.37.79-.08.31-.13.62-.14.94s-.02.58-.02.77c0,.35,0,.69.02,1.04.02.35.02.7.02,1.07,0,1.28-.03,2.56-.09,3.83-.06,1.27-.14,2.55-.23,3.83l-5.88.22c.19-1.44.36-2.88.5-4.31.14-1.43.22-2.88.22-4.32,0-.09,0-.26-.01-.5,0-.24-.02-.51-.04-.81-.02-.3-.05-.61-.09-.93-.04-.32-.09-.62-.16-.89-.06-.27-.14-.49-.23-.66-.09-.17-.2-.26-.33-.26-.21,0-.38.08-.52.24s-.25.37-.34.63c-.09.26-.15.54-.2.85-.05.31-.08.61-.1.91-.02.3-.03.57-.04.83,0,.25,0,.44-.02.56l-.27,9.05h-6.25c.13-1.4.27-2.8.4-4.2.14-1.41.26-2.81.36-4.21.1-1.4.19-2.8.25-4.21s.1-2.81.1-4.22l5.9-.25-.02,1.44c.18-.23.39-.46.62-.7.23-.24.48-.45.74-.63.26-.19.54-.34.83-.45.29-.12.6-.17.91-.17.41,0,.77.03,1.09.09.32.06.61.17.87.32.26.15.49.35.69.61.2.26.37.59.52.99.26-.29.53-.56.8-.81s.55-.46.85-.64c.3-.18.62-.32.97-.42.35-.1.73-.15,1.15-.15.8,0,1.48.15,2.05.46.56.31,1.03.72,1.41,1.23s.67,1.1.88,1.76.37,1.35.48,2.06.18,1.42.21,2.12.04,1.35.04,1.93Z"/></g></svg>